<?xml version="1.0" encoding="utf-8"?>
<!-- Generator: Adobe Illustrator 24.1.3, SVG Export Plug-In . SVG Version: 6.00 Build 0)  -->
<svg version="1.1" id="Layer_1" xmlns="http://www.w3.org/2000/svg" xmlns:xlink="http://www.w3.org/1999/xlink" x="0px" y="0px"
	 viewBox="0 0 375 406" style="enable-background:new 0 0 375 406;" xml:space="preserve">
<style type="text/css">
	.st0{fill:#0032A0;}
	.st1{clip-path:url(#SVGID_2_);fill:#FFFFFF;fill-opacity:5.000000e-02;}
</style>
<g>
	<path class="st0" d="M141.1,13.4L141.1,13.4L0,29v38v339h375V67V44.7C300.8,15.3,220.5,4.6,141.1,13.4z"/>
	<g>
		<defs>
			<path id="SVGID_1_" d="M141.1,13.4L141.1,13.4L0,29v38v339h375V67V44.7C300.8,15.3,220.5,4.6,141.1,13.4z"/>
		</defs>
		<clipPath id="SVGID_2_">
			<use xlink:href="#SVGID_1_"  style="overflow:visible;"/>
		</clipPath>
		<path class="st1" d="M513.8,226.1c60.6,15.9,154.2,33.3,237,11c58.9-15.9,131.3-41.3,175.1-69l-181.2-62.5
			c-37.9,10.6-142.8,21.6-259.5-19.8c-145.9-51.7-179.4-75-360.6-204.5C105.8-133.4,23-184.2,0-197.6l73.7,107
			C135.6-4.7,304.6,171.5,513.8,226.1L513.8,226.1z"/>
	</g>
</g>
</svg>
