<?xml version="1.0" encoding="utf-8"?>
<!-- Generator: Adobe Illustrator 24.1.3, SVG Export Plug-In . SVG Version: 6.00 Build 0)  -->
<svg version="1.1" id="Layer_1" xmlns="http://www.w3.org/2000/svg" xmlns:xlink="http://www.w3.org/1999/xlink" x="0px" y="0px"
	 viewBox="0 0 1440 564" style="enable-background:new 0 0 1440 564;" xml:space="preserve">
<style type="text/css">
	.st0{fill-rule:evenodd;clip-rule:evenodd;fill:#0032A0;}
	.st1{clip-path:url(#SVGID_2_);}
	.st2{fill:#FFFFFF;fill-opacity:5.000000e-02;}
</style>
<path class="st0" d="M886,14.3L0,66.5v498h1440v-498C1259.1,20.9,1091.8,0,886,14.3z"/>
<g>
	<defs>
		<path id="SVGID_1_" d="M886,14.3L0,66.5v498h1440v-498C1259.1,20.9,1091.8,0,886,14.3z"/>
	</defs>
	<clipPath id="SVGID_2_">
		<use xlink:href="#SVGID_1_"  style="overflow:visible;"/>
	</clipPath>
	<g class="st1">
		<path class="st2" d="M121.7,176C285.4,147.1,431.1,23.5,488.3-37.3l50.1-67.8c-8,5.1-41.9,26.1-57.8,36.1
			C328.4,17.6,276.7,42,160.8,72.5c-92.7,24.3-170,10-197-0.2l-143.7,36.5c29.4,23.3,80.4,46.5,122.6,61.8
			C1.9,192,74.3,184.4,121.7,176z"/>
		<path class="st2" d="M534.9,0.9C353.7,130.4,320.2,153.7,174.3,205.4C57.6,246.8-47.3,235.8-85.2,225.2l-181.2,62.5
			c43.8,27.7,116.2,53.1,175.1,69c82.8,22.3,176.4,4.9,237-11C354.9,291.1,523.9,114.9,585.8,29l73.7-107
			C636.5-64.6,553.7-13.8,534.9,0.9z"/>
	</g>
</g>
</svg>
