<svg xmlns="http://www.w3.org/2000/svg" width="1440" height="448" fill="none" viewBox="0 0 1440 448">
    <mask id="a" width="1440" height="448" x="0" y="0" maskUnits="userSpaceOnUse">
        <path fill="#fff" d="M0 0h1440v448H0z" transform="matrix(-1 0 0 1 1440 0)"/>
    </mask>
    <g stroke="#62B5E5" stroke-opacity=".24" mask="url(#a)">
        <path d="M116.126-36.487C-245.612-45.04-379.349 30.523-401 69.375c0-119.763 67.451-311.526 101.177-392.437 84.938-82.337 206.101-93.03 400.96-54.535C295.996-339.102 538.321-264.25 1012.98 29.809 1392.7 265.057 1612.55 449.335 1675 512.067l-57.46-31.01C1149.13 215.869 568.3-25.793 116.126-36.487z"/>
        <path d="M229.693 197.891C801.718 144.439 1483.48 512.176 1772.99 708.875L2052 942.991c-34.55-12.828-179.39-65.923-247.49-90.866-637.4-204.183-845.194-252.289-1267.791-256.565-338.078-3.421-558.794 140.398-626.893 212.735H-612c52.533-130.417 173.942-284.04 281.343-394.467 150.754-155.004 394.58-200.447 560.35-215.937z"/>
    </g>
</svg>
